<svg width="34" height="50" viewBox="0 0 34 50" fill="none" xmlns="http://www.w3.org/2000/svg">
<path fill-rule="evenodd" clip-rule="evenodd" d="M34 17C34 20.5981 32.8822 23.935 30.9749 26.6826C30.9547 26.7899 30.9159 26.8969 30.8564 27L17.866 49.5C17.4811 50.1667 16.5189 50.1667 16.134 49.5L3.14359 27C3.08408 26.8969 3.04529 26.7899 3.02505 26.6826C1.1178 23.935 0 20.5981 0 17C0 7.61116 7.61115 0 17 0C26.3889 0 34 7.61116 34 17ZM17 29C23.6274 29 29 23.6274 29 17C29 10.3726 23.6274 5 17 5C10.3726 5 5 10.3726 5 17C5 23.6274 10.3726 29 17 29Z" fill="#FF3495"/>
</svg>
