<svg width="12" height="16" viewBox="0 0 12 16" fill="none" xmlns="http://www.w3.org/2000/svg">
<path d="M6 4C7.10457 4 8 3.10457 8 2C8 0.89543 7.10457 0 6 0C4.89543 0 4 0.89543 4 2C4 3.10457 4.89543 4 6 4Z" fill="black"/>
<path d="M8.00001 5H4.00001C3.84477 5 3.69165 5.03614 3.5528 5.10557C3.41394 5.175 3.29316 5.2758 3.20001 5.4L0.200012 9.4L1.80001 10.6L3.00001 9V16H5.00001V12H7.00001V16H9.00001V9L10.2 10.6L11.8 9.4L8.80001 5.4C8.70687 5.2758 8.58608 5.175 8.44723 5.10557C8.30837 5.03614 8.15526 5 8.00001 5Z" fill="black"/>
</svg>
