<svg width="26" height="26" viewBox="0 0 26 26" fill="none" xmlns="http://www.w3.org/2000/svg">
<g clip-path="url(#clip0_82_252)">
<path d="M17.5 0H3.5C1.567 0 0 1.55208 0 3.46667V22.5333C0 24.4479 1.567 26 3.5 26H17.5C19.433 26 21 24.4479 21 22.5333V3.46667C21 1.55208 19.433 0 17.5 0Z" fill="white"/>
<path d="M23 8.7C23 7.76112 23.6716 7 24.5 7C25.3284 7 26 7.76112 26 8.7V22.3C26 23.2389 25.3284 24 24.5 24C23.6716 24 23 23.2389 23 22.3V8.7Z" fill="white"/>
<path d="M2 6.5C2 5.67157 2.79594 5 3.77778 5H16.2222C17.2041 5 18 5.67157 18 6.5C18 7.32843 17.2041 8 16.2222 8H3.77778C2.79594 8 2 7.32843 2 6.5Z" fill="black"/>
<path d="M2 12.5C2 11.6716 2.79594 11 3.77778 11H16.2222C17.2041 11 18 11.6716 18 12.5C18 13.3284 17.2041 14 16.2222 14H3.77778C2.79594 14 2 13.3284 2 12.5Z" fill="black"/>
<path d="M2 18.5C2 17.6716 2.80589 17 3.8 17H9.2C10.1941 17 11 17.6716 11 18.5C11 19.3284 10.1941 20 9.2 20H3.8C2.80589 20 2 19.3284 2 18.5Z" fill="black"/>
</g>
<defs>
<clipPath id="clip0_82_252">
<rect width="26" height="26" fill="white"/>
</clipPath>
</defs>
</svg>
