<svg width="40" height="39" viewBox="0 0 40 39" fill="none" xmlns="http://www.w3.org/2000/svg">
<path d="M10.6 23.6L13 21.2C11 19.2 9.99998 16.6 9.99998 14.2C9.99998 11.6 11 9 13 7.2L10.6 4.8C7.99998 7.4 6.59998 10.8 6.59998 14.2C6.59998 17.6 7.99998 21 10.6 23.6ZM34.2 0L31.8 2.4C35 5.6 36.6 10 36.6 14.2C36.6 18.4 35 22.8 31.8 26L34.2 28.4C38.2 24.4 40 19.4 40 14.2C40 9 38 4 34.2 0Z" fill="black"/>
<path d="M8.2 2.4L5.8 0C2 4 0 9 0 14.2C0 19.4 2 24.4 5.8 28.4L8.2 26C5 22.8 3.4 18.4 3.4 14.2C3.4 10 5 5.6 8.2 2.4ZM29.4 23.6C32 21 33.4 17.6 33.4 14.2C33.2 10.8 32 7.4 29.4 4.8L27 7.2C29 9.2 30 11.8 30 14.2C30 16.8 29 19.4 27 21.2L29.4 23.6ZM25 14.2C25 12.8739 24.4732 11.6021 23.5355 10.6645C22.5979 9.72678 21.3261 9.2 20 9.2C18.6739 9.2 17.4021 9.72678 16.4645 10.6645C15.5268 11.6021 15 12.8739 15 14.2C15 15.72 15.68 17.04 16.74 17.96L10 38.2H14L15.34 34.2H24.68L26 38.2H30L23.26 17.96C24.32 17.04 25 15.72 25 14.2ZM16.66 30.2L20 20.2L23.34 30.2H16.66Z" fill="black"/>
</svg>
